<svg width="93" height="16" viewBox="0 0 93 16" fill="none" xmlns="http://www.w3.org/2000/svg">
<g id="Group 1">
<path id="Vector" d="M15 15L10.9556 10.9556M12.6667 6.83333C12.6667 10.055 10.055 12.6667 6.83333 12.6667C3.61167 12.6667 1 10.055 1 6.83333C1 3.61167 3.61167 1 6.83333 1C10.055 1 12.6667 3.61167 12.6667 6.83333Z" stroke="white" stroke-width="1.5" stroke-linecap="round" stroke-linejoin="round"/>
<g id="Vector_2">
<path d="M51.9975 3.2746H50.5499C50.4777 2.45197 50.0872 1.68543 49.4556 1.12678C48.8241 0.568129 47.9976 0.258107 47.1398 0.258107C46.2821 0.258107 45.4556 0.568129 44.824 1.12678C44.1925 1.68543 43.8019 2.45197 43.7297 3.2746H42.2821C41.7453 3.2746 41.2305 3.47984 40.8509 3.84516C40.4714 4.21049 40.2581 4.70598 40.2581 5.22263V13.794C40.2581 14.3106 40.4714 14.8061 40.8509 15.1714C41.2305 15.5367 41.7453 15.742 42.2821 15.742H51.9975C52.5343 15.742 53.0491 15.5367 53.4287 15.1714C53.8083 14.8061 54.0215 14.3106 54.0215 13.794V5.22263C54.0215 4.70598 53.8083 4.21049 53.4287 3.84516C53.0491 3.47984 52.5343 3.2746 51.9975 3.2746ZM47.1398 1.03437C47.7832 1.03629 48.4034 1.26548 48.8828 1.67845C49.3622 2.09141 49.6673 2.6594 49.7403 3.2746H44.5393C44.6123 2.6594 44.9175 2.09141 45.3969 1.67845C45.8762 1.26548 46.4965 1.03629 47.1398 1.03437ZM53.2119 13.794C53.2119 14.1039 53.084 14.4012 52.8562 14.6204C52.6285 14.8396 52.3196 14.9628 51.9975 14.9628H42.2821C41.9601 14.9628 41.6512 14.8396 41.4234 14.6204C41.1957 14.4012 41.0677 14.1039 41.0677 13.794V5.22263C41.0677 4.91264 41.1957 4.61534 41.4234 4.39615C41.6512 4.17695 41.9601 4.05381 42.2821 4.05381H51.9975C52.3196 4.05381 52.6285 4.17695 52.8562 4.39615C53.084 4.61534 53.2119 4.91264 53.2119 5.22263V13.794Z" fill="white"/>
<path fill-rule="evenodd" clip-rule="evenodd" d="M50.7781 3.01649H51.9975C52.5996 3.01649 53.179 3.24661 53.6076 3.65918C54.0366 4.07208 54.2796 4.63424 54.2796 5.22258V13.7939C54.2796 14.3823 54.0366 14.9444 53.6076 15.3573C53.179 15.7699 52.5996 16 51.9975 16H42.2821C41.68 16 41.1006 15.7699 40.6719 15.3573C40.2429 14.9444 40 14.3823 40 13.7939V5.22258C40 4.63424 40.2429 4.07208 40.6719 3.65918C41.1006 3.24661 41.68 3.01649 42.2821 3.01649H43.5015C43.6278 2.21688 44.0335 1.48145 44.653 0.933445C45.3326 0.332271 46.2202 0 47.1398 0C48.0593 0 48.947 0.332271 49.6266 0.933445C50.2461 1.48145 50.6518 2.21688 50.7781 3.01649ZM50.5499 3.2746H51.9975C52.5343 3.2746 53.0491 3.47984 53.4287 3.84516C53.8083 4.21049 54.0215 4.70598 54.0215 5.22263V13.794C54.0215 14.3106 53.8083 14.8061 53.4287 15.1714C53.0491 15.5367 52.5343 15.742 51.9975 15.742H42.2821C41.7453 15.742 41.2305 15.5367 40.8509 15.1714C40.4714 14.8061 40.2581 14.3106 40.2581 13.794V5.22263C40.2581 4.70598 40.4714 4.21049 40.8509 3.84516C41.2305 3.47984 41.7453 3.2746 42.2821 3.2746H43.7297C43.8019 2.45197 44.1925 1.68543 44.824 1.12678C45.4556 0.568129 46.2821 0.258107 47.1398 0.258107C47.9976 0.258107 48.8241 0.568129 49.4556 1.12678C50.0872 1.68543 50.4777 2.45197 50.5499 3.2746ZM48.7143 1.87392C48.2826 1.50203 47.7224 1.29431 47.1398 1.29239C46.5571 1.29431 45.997 1.50203 45.5653 1.87392C45.2103 2.17973 44.9627 2.5787 44.8497 3.01649H49.4299C49.3169 2.5787 49.0693 2.17973 48.7143 1.87392ZM49.6955 3.01649C49.5774 2.50169 49.2943 2.03296 48.8828 1.67845C48.4034 1.26548 47.7832 1.03629 47.1398 1.03437C46.4965 1.03629 45.8762 1.26548 45.3969 1.67845C44.9853 2.03296 44.7022 2.50169 44.5841 3.01649C44.5646 3.10136 44.5497 3.18753 44.5393 3.2746H49.7403C49.73 3.18753 49.715 3.10136 49.6955 3.01649ZM52.6772 14.4344C52.8556 14.2628 52.9538 14.0322 52.9538 13.7939V5.22258C52.9538 4.98429 52.8556 4.75367 52.6772 4.58204C52.4986 4.41009 52.2542 4.31183 51.9975 4.31183H42.2821C42.0253 4.31183 41.781 4.41009 41.6023 4.58204C41.424 4.75367 41.3257 4.98429 41.3257 5.22258V13.7939C41.3257 14.0322 41.424 14.2628 41.6023 14.4344C41.781 14.6064 42.0253 14.7047 42.2821 14.7047H51.9975C52.2542 14.7047 52.4986 14.6064 52.6772 14.4344ZM52.8562 14.6204C53.084 14.4012 53.2119 14.1039 53.2119 13.794V5.22263C53.2119 4.91264 53.084 4.61534 52.8562 4.39615C52.6285 4.17695 52.3196 4.05381 51.9975 4.05381H42.2821C41.9601 4.05381 41.6512 4.17695 41.4234 4.39615C41.1957 4.61534 41.0677 4.91264 41.0677 5.22263V13.794C41.0677 14.1039 41.1957 14.4012 41.4234 14.6204C41.6512 14.8396 41.9601 14.9628 42.2821 14.9628H51.9975C52.3196 14.9628 52.6285 14.8396 52.8562 14.6204Z" fill="white"/>
</g>
<g id="Vector_3">
<path d="M90.8116 8.11075C90.7543 8.05377 90.6862 8.00866 90.6114 7.97798C90.5366 7.9473 90.4565 7.93166 90.3756 7.93194C90.2948 7.93223 90.2148 7.94844 90.1402 7.97964C90.0656 8.01085 89.9978 8.05644 89.9409 8.11382C89.8839 8.1712 89.8388 8.23924 89.8081 8.31405C89.7774 8.38886 89.7618 8.46899 89.7621 8.54984C89.7624 8.6307 89.7786 8.71071 89.8098 8.78531C89.841 8.8599 89.8866 8.92762 89.9439 8.98459C90.4647 9.49979 90.878 10.1132 91.16 10.7892C91.4421 11.4653 91.5872 12.1905 91.587 12.9231C91.587 13.6738 89.427 14.7692 86.0486 14.7692C82.6701 14.7692 80.5101 13.6738 80.5101 12.9231C80.5091 12.1954 80.6516 11.4746 80.9293 10.802C81.207 10.1294 81.6145 9.51809 82.1286 9.00305C82.2432 8.88775 82.3075 8.73178 82.3075 8.56921C82.3075 8.40663 82.2432 8.25066 82.1286 8.13536C82.0133 8.02074 81.8573 7.95641 81.6947 7.95641C81.5321 7.95641 81.3762 8.02074 81.2609 8.13536C80.6302 8.76254 80.1302 9.50869 79.7901 10.3305C79.4499 11.1524 79.2763 12.0336 79.2793 12.9231C79.2793 14.9231 82.7686 16 86.0486 16C89.3286 16 92.8178 14.9231 92.8178 12.9231C92.8202 12.0278 92.6439 11.1411 92.2995 10.3148C91.955 9.48851 91.4492 8.7392 90.8116 8.11075Z" fill="white"/>
<path d="M86.0485 8.61539C86.9005 8.61539 87.7334 8.36274 88.4418 7.88941C89.1502 7.41607 89.7023 6.7433 90.0283 5.95618C90.3544 5.16905 90.4397 4.30291 90.2735 3.4673C90.1072 2.63169 89.697 1.86414 89.0945 1.2617C88.4921 0.659254 87.7245 0.248986 86.8889 0.082773C86.0533 -0.0834402 85.1872 0.00186646 84.4001 0.327905C83.6129 0.653944 82.9402 1.20607 82.4668 1.91447C81.9935 2.62286 81.7408 3.45571 81.7408 4.30769C81.7408 5.45016 82.1947 6.54584 83.0025 7.35369C83.8104 8.16154 84.9061 8.61539 86.0485 8.61539ZM86.0485 1.23077C86.6571 1.23077 87.252 1.41123 87.758 1.74933C88.264 2.08742 88.6584 2.56797 88.8912 3.13021C89.1241 3.69244 89.1851 4.31111 89.0663 4.90797C88.9476 5.50484 88.6546 6.05309 88.2242 6.48341C87.7939 6.91372 87.2457 7.20677 86.6488 7.32549C86.0519 7.44422 85.4333 7.38328 84.871 7.1504C84.3088 6.91751 83.8283 6.52314 83.4902 6.01714C83.1521 5.51114 82.9716 4.91625 82.9716 4.30769C82.9716 3.49164 83.2958 2.70902 83.8728 2.13198C84.4499 1.55495 85.2325 1.23077 86.0485 1.23077Z" fill="white"/>
</g>
</g>
</svg>
